# xmcd
#
# Track frame offsets:
#	150
#	24258
#	40950
#	70980
#	98617
#	134070
#	157897
#	178687
#	214064
#	229949
#	248012
#	272587
#
# Disc length: 3884
#
# Revision: 1
# Processed by: cddbd v1.5.1PL0 Copyright (c) Steve Scherf et al.
# Submitted via: audiograbber 1.80
# Normalized: r0:TDELIM( - )
#
DISCID=a00f2a0c
DTITLE=Various Artist - Blues
DYEAR=1900
DGENRE=
TTITLE0=Steve Ray Vaughan - Texas Flood
TTITLE1=Steve Ray Vaughan - Pride and Joy
TTITLE2=Roy Buchanan - When a Guitar Plays the Blues
TTITLE3=Roy Buchanan - Why Din`t You Want Me?
TTITLE4=Rory Gallagher - I Wonder Who
TTITLE5=Rory Gallagher - Seven Days
TTITLE6=Alvin Lee and Ten Years After - Real Life Blues
TTITLE7=Alvin Lee and Ten Years After - Outside My Window
TTITLE8=Joe Satriani - Home
TTITLE9=Joe Satriani - Cryn`
TTITLE10=Steve Vai - Hand on Heart
TTITLE11=Steve Vai - Warm Regards
EXTD=
EXTT0=
EXTT1=
EXTT2=
EXTT3=
EXTT4=
EXTT5=
EXTT6=
EXTT7=
EXTT8=
EXTT9=
EXTT10=
EXTT11=
PLAYORDER=
